<?xml version="1.0" encoding="UTF-8"?>
<!DOCTYPE svg PUBLIC "-//W3C//DTD SVG 1.1//EN" "http://www.w3.org/Graphics/SVG/1.1/DTD/svg11.dtd">
<svg xmlns="http://www.w3.org/2000/svg" xml:space="preserve" width="300px" height="300px" version="1.1" style="shape-rendering:geometricPrecision; text-rendering:geometricPrecision; image-rendering:optimizeQuality; fill-rule:evenodd; clip-rule:evenodd"
viewBox="0 0 300 300"
 xmlns:xlink="http://www.w3.org/1999/xlink">
 <defs>
  <style type="text/css">
   <![CDATA[
    .fil0 {fill:#525252;fill-rule:nonzero}
   ]]>
  </style>
 </defs>
 <g id="Layer_x0020_1">
  <path class="fil0" d="M225.79 19.04l30.86 0 -30.86 27.05 0 -27.05zm31.59 68.68l0 80.09c0,65.56 -26.08,113.15 -107.27,113.15 -38.39,0 -64.42,-10.26 -81.24,-28.04l22.69 -19.89c3.69,3.37 8.01,6.27 12.97,8.72 11.5,5.75 25.59,8.63 42.22,8.63 28.47,0 48.79,-5.69 60.9,-17.03 12.11,-11.39 18.14,-33.22 18.14,-65.6l0 -52.34 31.59 -27.69zm-211.67 116.17c-2.13,-11.16 -3.09,-23.24 -3.09,-36.08l0 -148.77 30.44 0 0 148.71c0,4.19 0.08,8.18 0.25,11.96l-27.6 24.18z"/>
  <path class="fil0" d="M82.56 173.75l-0.12 -154.76 12.13 0 0.12 159.7c0.01,15.99 4.8,28.55 14.39,37.57 9.59,9.01 23.04,13.54 40.3,13.54 17.39,0 30.89,-4.39 40.43,-13.09 9.55,-8.7 14.35,-21.39 14.34,-38.02l-0.11 -159.7 12.13 0 0.12 154.76c0.03,44.46 -22.39,66.66 -67.2,66.66 -22.24,0 -38.88,-5.71 -49.93,-17.18 -11.05,-11.45 -16.59,-27.96 -16.6,-49.48z"/>
 </g>
</svg>
