<?xml version="1.0" encoding="UTF-8"?>
<!DOCTYPE svg PUBLIC "-//W3C//DTD SVG 1.1//EN" "http://www.w3.org/Graphics/SVG/1.1/DTD/svg11.dtd">
<svg xmlns="http://www.w3.org/2000/svg" xml:space="preserve" width="1500px" height="390px" version="1.1" style="shape-rendering:geometricPrecision; text-rendering:geometricPrecision; image-rendering:optimizeQuality; fill-rule:evenodd; clip-rule:evenodd"
viewBox="0 0 1500 390"
 xmlns:xlink="http://www.w3.org/1999/xlink">
 <defs>
  <style type="text/css">
   <![CDATA[
    .fil0 {fill:#525252;fill-rule:nonzero}
   ]]>
  </style>
 </defs>
 <g id="Layer_x0020_1">
  <path class="fil0" d="M295.8 104.83c32.87,0 65.8,11.37 65.8,49.63 0,47.25 -42.94,57.1 -81.98,57.1 -5.53,0 -12.68,-0.47 -21.33,-1.51l0 80.13 -12.21 0 0 -91.71 12.21 0.65c9.22,0.9 16.32,1.37 21.33,1.37 31.59,0 69.21,-6.06 69.21,-45.46 0,-13.86 -5.01,-23.85 -15.09,-29.95 -17.03,-10.31 -39.08,-9.18 -58.4,-9.18l-29.26 -0.14 0 -10.93 49.72 0z"/>
  <path class="fil0" d="M579.27 104.83c11.59,0 20.58,0.48 27.06,1.38 30.04,5.81 45.04,21.76 45.04,47.73 0,31.97 -23.03,51.78 -53.94,53.41l64.72 82.83 -14.95 0 -64.71 -81.46 -31.6 0 0 81.46 -12.21 0 0 -185.35 40.59 0zm59.32 48.82c0,-13.85 -5.25,-23.6 -15.8,-29.28 -10.5,-5.63 -25.5,-8.47 -44.89,-8.47l-27.01 0 0 81.75 27.58 0c20.15,0 35.19,-3.4 45.17,-10.27 9.98,-6.86 14.95,-18.07 14.95,-33.73z"/>
  <path class="fil0" d="M691.67 197.56c0,-18.36 3.6,-34.92 10.74,-49.58 7.15,-14.72 17.13,-26.16 29.85,-34.44 12.73,-8.28 27.2,-12.4 43.38,-12.4 16.89,0 31.7,4.12 44.38,12.4 0.73,0.47 1.44,0.96 2.16,1.46l-8.56 8.56c-0.65,-0.44 -1.31,-0.86 -1.98,-1.27 -10.74,-6.72 -22.75,-10.08 -35.95,-10.08 -13.01,0 -24.93,3.36 -35.76,10.08 -10.79,6.67 -19.4,16.46 -25.69,29.38 -6.34,12.87 -9.51,28.19 -9.51,45.89 0,11.38 1.28,21.73 3.84,31.04l-10.09 10.09c-4.53,-12.4 -6.81,-26.11 -6.81,-41.13zm161.17 -41.45c4.57,12.49 6.87,26.32 6.87,41.45 0,18.3 -3.55,34.72 -10.64,49.34 -7.15,14.57 -17.04,26.01 -29.76,34.3 -12.68,8.27 -27.01,12.39 -43,12.39 -17.08,0 -32.03,-4.12 -44.81,-12.35 -0.77,-0.49 -1.53,-1 -2.28,-1.51l8.56 -8.56c0.78,0.52 1.58,1.02 2.38,1.51 10.84,6.53 22.9,9.84 36.24,9.84 13.01,0 24.84,-3.31 35.48,-9.84 10.6,-6.58 19.07,-16.23 25.36,-29.04 6.29,-12.78 9.41,-28.15 9.41,-46.08 0,-11.44 -1.3,-21.9 -3.93,-31.33l10.12 -10.12z"/>
  <path class="fil0" d="M1327.53 283.61l0 -13.3c4.54,2.75 11.93,5.45 22.19,8.05 10.22,2.55 18.73,3.88 25.5,3.88 16.6,0 29.52,-3.13 38.74,-9.33 9.18,-6.14 13.77,-16.69 13.77,-31.55 0,-7.47 -1.56,-13.67 -4.64,-18.59 -3.12,-4.87 -7.33,-8.8 -12.68,-11.73 -5.39,-2.98 -14.99,-6.34 -28.85,-10.13 -12.02,-3.07 -21.67,-6.1 -28.95,-9.08 -7.29,-3.02 -13.44,-7.66 -18.46,-14 -4.96,-6.34 -7.47,-14.86 -7.47,-25.55 0,-15.42 5.58,-27.81 16.7,-37.13 11.16,-9.32 25.73,-14.01 43.76,-14.01 11.83,0 23.37,1.71 34.63,5.11 4.54,1.71 8.61,3.41 12.21,5.16l0 13.29c-5.63,-2.6 -10.46,-4.68 -14.48,-6.29 -4.02,-1.61 -8.9,-3.03 -14.57,-4.26 -5.68,-1.18 -11.88,-1.84 -18.64,-1.94 -15.99,0 -27.82,3.69 -35.53,11.12 -7.71,7.38 -11.59,17.22 -11.59,29.47 0,7.76 1.7,13.87 5.06,18.31 3.36,4.45 7.9,7.86 13.67,10.27 5.73,2.36 14.24,5.15 25.64,8.28 12.73,3.54 22.71,6.76 29.95,9.79 7.19,2.98 13.44,7.8 18.78,14.43 5.3,6.57 7.95,15.56 7.95,26.91 0,16.66 -5.73,29.57 -17.13,38.89 -11.4,9.27 -27.62,13.91 -48.72,13.91 -8.66,0 -17.74,-1.14 -27.16,-3.45 -9.41,-2.32 -15.99,-4.5 -19.68,-6.53z"/>
  <path class="fil0" d="M1219.06 289.57l0 -11.92c7,2.88 14.19,4.3 21.47,4.3 9.51,0 17.18,-2.32 22.95,-7 5.77,-4.68 8.65,-13.24 8.65,-25.73l0 -144.39 12.21 0 0 148.17c0,7.19 -1.61,14 -4.78,20.44 -3.17,6.39 -7.95,11.35 -14.19,14.9 -6.29,3.5 -14.29,5.25 -23.99,5.25 -10.64,-0.19 -18.07,-1.52 -22.32,-4.02z"/>
  <polygon class="fil0" points="1138.73,116.19 1074.86,116.19 1074.86,104.83 1215.08,104.83 1215.08,116.19 1150.93,116.19 1150.93,290.18 1138.73,290.18 "/>
  <path class="fil0" d="M913.97 104.83l83.4 116.57 34.92 50.05 0.8 0c-1.28,-11.64 -1.94,-30.75 -1.94,-57.38l0 -109.24 12.21 0 0 185.35 -10.55 0 -83.64 -117.84 -34.63 -49.06 -0.57 0c1.09,11.64 1.66,33.31 1.66,65.01l0 101.89 -12.21 0 0 -185.35 10.55 0z"/>
  <polygon class="fil0" points="399.93,104.83 503.81,104.83 503.81,115.9 412.13,115.9 412.13,189.14 495.86,189.14 495.86,200.21 412.13,200.21 412.13,290.18 399.93,290.18 "/>
  <path class="fil0" d="M62.72 224l0 -119.17 12.2 0 0 124.33c0,16.7 4.83,29.8 14.47,39.22 9.66,9.41 23.19,14.14 40.55,14.14 17.5,0 31.08,-4.59 40.68,-13.67 9.61,-9.08 14.43,-22.33 14.43,-39.69l0 -124.33 12.21 0 0 119.17c0,46.41 -22.52,69.59 -67.61,69.59 -22.37,0 -39.12,-5.96 -50.24,-17.93 -11.11,-11.97 -16.69,-29.19 -16.69,-51.66z"/>
  <path class="fil0" d="M715.67 197.5c0,-13.11 2.57,-24.94 7.67,-35.41 5.11,-10.51 12.24,-18.69 21.33,-24.6 9.09,-5.92 19.43,-8.86 30.99,-8.86 12.06,0 22.64,2.94 31.7,8.86 9.05,5.91 16.05,14.05 20.98,24.49 4.9,10.41 7.37,22.28 7.37,35.52 0,13.08 -2.54,24.81 -7.6,35.25 -5.11,10.41 -12.17,18.58 -21.26,24.5 -9.06,5.91 -19.3,8.85 -30.72,8.85 -12.2,0 -22.88,-2.94 -32,-8.82 -9.13,-5.84 -16.16,-13.99 -21.09,-24.39 -4.9,-10.38 -7.37,-22.17 -7.37,-35.39zm110.71 0c0,-12.64 -2.23,-23.59 -6.72,-32.78 -4.5,-9.22 -10.58,-16.22 -18.28,-20.98 -7.68,-4.8 -16.26,-7.2 -25.69,-7.2 -9.29,0 -17.81,2.4 -25.55,7.2 -7.7,4.76 -13.85,11.76 -18.35,20.98 -4.53,9.19 -6.79,20.14 -6.79,32.78 0,12.81 2.26,23.79 6.83,32.92 4.56,9.16 10.71,16.05 18.48,20.75 7.74,4.66 16.36,7.03 25.89,7.03 9.29,0 17.74,-2.37 25.34,-7.03 7.57,-4.7 13.62,-11.59 18.12,-20.75 4.49,-9.13 6.72,-20.11 6.72,-32.92z"/>
 </g>
</svg>
